<svg width="190" height="88" viewBox="0 0 190 88" fill="none" xmlns="http://www.w3.org/2000/svg">
<path d="M49.208 77.632V88H0.568001L0.568001 0.959999L47.928 0.959999V11.456L11.704 11.456V38.72H44.088V49.216H11.704V77.632H49.208ZM117.208 77.632V88L68.568 88L68.568 0.959999H115.928V11.456H79.704V38.72L112.088 38.72V49.216L79.704 49.216L79.704 77.632L117.208 77.632ZM136.568 88V0.959999L163.704 0.959999C172.067 0.959999 178.424 3.17867 182.776 7.616C187.213 11.968 189.432 17.8133 189.432 25.152V31.936C189.432 39.2747 187.213 45.1627 182.776 49.6C178.424 54.0373 172.067 56.256 163.704 56.256H147.704V88H136.568ZM163.704 11.456H147.704V45.888H163.704C168.312 45.888 171.811 44.6507 174.2 42.176C176.675 39.7013 177.912 36.288 177.912 31.936V25.152C177.912 20.8853 176.675 17.5573 174.2 15.168C171.811 12.6933 168.312 11.456 163.704 11.456Z" fill="black"/>
</svg>
