<svg width="56" height="91" viewBox="0 0 56 91" fill="none" xmlns="http://www.w3.org/2000/svg">
<path d="M27.36 80.296C32.736 80.296 36.8747 79.144 39.776 76.84C42.6773 74.4507 44.128 70.9947 44.128 66.472C44.128 62.7173 43.104 59.56 41.056 57C39.0933 54.44 35.8507 52.4773 31.328 51.112L20.96 48.04C14.4747 46.0773 9.696 43.1333 6.624 39.208C3.552 35.1973 2.016 30.2907 2.016 24.488C2.016 20.0507 2.86933 16.04 4.576 12.456C6.368 8.87199 9.184 6.01333 13.024 3.88C16.9493 1.74666 22.0693 0.679993 28.384 0.679993C32.224 0.679993 36.192 1.14933 40.288 2.088C44.384 2.94133 48.5227 4.34933 52.704 6.312L49.12 15.912C45.024 14.12 41.312 12.84 37.984 12.072C34.7413 11.2187 31.6267 10.792 28.64 10.792C23.776 10.792 19.9787 11.816 17.248 13.864C14.6027 15.8267 13.28 19.112 13.28 23.72C13.28 27.048 14.176 29.864 15.968 32.168C17.76 34.3867 20.96 36.2213 25.568 37.672L35.936 40.744C48.9067 44.584 55.392 52.8613 55.392 65.576C55.392 72.9147 53.1733 78.888 48.736 83.496C44.2987 88.0187 37.1733 90.28 27.36 90.28C23.3493 90.28 19.0827 89.8107 14.56 88.872C10.1227 87.848 5.51467 86.2693 0.736 84.136L4.192 74.664C8.71467 76.712 12.768 78.1627 16.352 79.016C20.0213 79.8693 23.6907 80.296 27.36 80.296Z" fill="black"/>
</svg>
