<svg width="37" height="38" viewBox="0 0 37 38" fill="none" xmlns="http://www.w3.org/2000/svg">
<path d="M6.292 15.374C8.30267 15.374 9.308 14.6287 9.308 13.138C9.308 12.5313 9.152 12.0547 8.84 11.708C8.54533 11.3613 7.99067 11.058 7.176 10.798L5.044 10.096C2.496 9.264 1.222 7.59133 1.222 5.078C1.222 3.622 1.67267 2.426 2.574 1.49C3.49267 0.536664 4.92267 0.0599976 6.864 0.0599976C7.67867 0.0599976 8.48467 0.155331 9.282 0.345998C10.0793 0.519332 10.9287 0.805332 11.83 1.204L10.868 3.882C10.036 3.55267 9.32533 3.31867 8.736 3.18C8.164 3.024 7.57467 2.946 6.968 2.946C6.17067 2.946 5.538 3.09333 5.07 3.388C4.61933 3.66533 4.394 4.17667 4.394 4.922C4.394 5.47667 4.55 5.936 4.862 6.3C5.19133 6.64667 5.72867 6.94133 6.474 7.184L8.606 7.886C9.88867 8.31933 10.8507 8.952 11.492 9.784C12.1507 10.5987 12.48 11.682 12.48 13.034C12.48 14.594 11.986 15.8593 10.998 16.83C10.01 17.7833 8.45867 18.26 6.344 18.26C5.512 18.26 4.64533 18.1647 3.744 17.974C2.86 17.766 1.88933 17.4193 0.832001 16.934L1.794 14.256C2.76467 14.672 3.588 14.9667 4.264 15.14C4.95733 15.296 5.63333 15.374 6.292 15.374Z" fill="black"/>
<path d="M20.84 25.98C22.3867 25.98 23.16 25.4067 23.16 24.26C23.16 23.7933 23.04 23.4267 22.8 23.16C22.5733 22.8933 22.1467 22.66 21.52 22.46L19.88 21.92C17.92 21.28 16.94 19.9933 16.94 18.06C16.94 16.94 17.2867 16.02 17.98 15.3C18.6867 14.5667 19.7867 14.2 21.28 14.2C21.9067 14.2 22.5267 14.2733 23.14 14.42C23.7533 14.5533 24.4067 14.7733 25.1 15.08L24.36 17.14C23.72 16.8867 23.1733 16.7067 22.72 16.6C22.28 16.48 21.8267 16.42 21.36 16.42C20.7467 16.42 20.26 16.5333 19.9 16.76C19.5533 16.9733 19.38 17.3667 19.38 17.94C19.38 18.3667 19.5 18.72 19.74 19C19.9933 19.2667 20.4067 19.4933 20.98 19.68L22.62 20.22C23.6067 20.5533 24.3467 21.04 24.84 21.68C25.3467 22.3067 25.6 23.14 25.6 24.18C25.6 25.38 25.22 26.3533 24.46 27.1C23.7 27.8333 22.5067 28.2 20.88 28.2C20.24 28.2 19.5733 28.1267 18.88 27.98C18.2 27.82 17.4533 27.5533 16.64 27.18L17.38 25.12C18.1267 25.44 18.76 25.6667 19.28 25.8C19.8133 25.92 20.3333 25.98 20.84 25.98Z" fill="black"/>
<path d="M32.356 35.5191C33.748 35.5191 34.444 35.0091 34.444 33.9892C34.444 33.5741 34.336 33.248 34.12 33.0108C33.916 32.7735 33.532 32.566 32.968 32.3881L31.492 31.9078C29.728 31.3386 28.846 30.1941 28.846 28.4744C28.846 27.4782 29.158 26.6599 29.782 26.0195C30.418 25.3672 31.408 25.0411 32.752 25.0411C33.316 25.0411 33.874 25.1063 34.426 25.2368C34.978 25.3554 35.566 25.551 36.19 25.8238L35.524 27.6561C34.948 27.4308 34.456 27.2707 34.048 27.1758C33.652 27.0691 33.244 27.0157 32.824 27.0157C32.272 27.0157 31.834 27.1165 31.51 27.3181C31.198 27.5079 31.042 27.8577 31.042 28.3677C31.042 28.7472 31.15 29.0615 31.366 29.3106C31.594 29.5477 31.966 29.7494 32.482 29.9154L33.958 30.3957C34.846 30.6922 35.512 31.1251 35.956 31.6943C36.412 32.2518 36.64 32.993 36.64 33.918C36.64 34.9854 36.298 35.8511 35.614 36.5153C34.93 37.1675 33.856 37.4937 32.392 37.4937C31.816 37.4937 31.216 37.4285 30.592 37.298C29.98 37.1557 29.308 36.9185 28.576 36.5864L29.242 34.7541C29.914 35.0388 30.484 35.2404 30.952 35.359C31.432 35.4657 31.9 35.5191 32.356 35.5191Z" fill="black"/>
</svg>
